<svg version="1.1" xmlns="http://www.w3.org/2000/svg"
            xmlns:xlink="http://www.w3.org/1999/xlink" x="0px" y="0px" viewbox="0 0 40 40"
            style="enable-background:new 0 0 40 40;" xml:space="preserve">
            <g>
                <path d="M15,8.1c-1.6-0.6-3.3,0.2-3.8,1.8L5,26.8c-0.6,1.6,0.2,3.3,1.8,3.8c1.6,0.6,3.3-0.2,3.8-1.8L16.8,12
                    C17.4,10.4,16.6,8.7,15,8.1z"></path>
                <circle cx="30.4" cy="26.9" r="3.5"></circle>
                <path d="M26,8.1c-1.6-0.6-3.3,0.2-3.8,1.8L16,26.8c-0.6,1.6,0.2,3.3,1.8,3.8c1.6,0.6,3.3-0.2,3.8-1.8L27.8,12
                    C28.4,10.4,27.6,8.7,26,8.1z"></path>
            </g>
</svg>