<svg width="89" height="99" viewBox="0 0 89 99" fill="none" xmlns="http://www.w3.org/2000/svg">
<path d="M44.332 98.6226C43.0021 98.6231 41.6955 98.2734 40.5437 97.6086L28.4886 90.472C26.6895 89.4651 27.5662 89.1095 28.1612 88.9018C30.0746 88.3106 31.9067 87.4827 33.6148 86.4373C33.7578 86.3711 33.9153 86.3425 34.0724 86.3542C34.2295 86.366 34.381 86.4175 34.5126 86.5042L43.7757 92.0071C43.9482 92.0983 44.1404 92.146 44.3355 92.146C44.5306 92.146 44.7228 92.0983 44.8953 92.0071L81.0182 71.1572C81.1873 71.0559 81.3271 70.9125 81.424 70.7409C81.5209 70.5693 81.5715 70.3755 81.571 70.1784V28.4716C81.5711 28.2714 81.5197 28.0746 81.4216 27.9001C81.3236 27.7255 81.1822 27.5792 81.0112 27.4752L44.8883 6.64292C44.7179 6.54699 44.5257 6.49659 44.3302 6.49659C44.1347 6.49659 43.9425 6.54699 43.7722 6.64292L7.6704 27.4823C7.49819 27.5841 7.3552 27.7287 7.25528 27.902C7.15535 28.0753 7.10188 28.2715 7.10004 28.4716L7.10004 70.1608C7.10053 70.3574 7.15328 70.5504 7.25288 70.7199C7.35249 70.8894 7.49536 71.0294 7.66688 71.1255L17.5743 76.8432C22.9434 79.526 26.2318 76.3644 26.2318 73.1887L26.2318 32.0275C26.2318 31.7474 26.3431 31.4788 26.5412 31.2807C26.7392 31.0826 27.0079 30.9713 27.288 30.9713H31.865C32.1451 30.9713 32.4138 31.0826 32.6119 31.2807C32.8099 31.4788 32.9212 31.7474 32.9212 32.0275V73.1922C32.9212 80.3569 29.0202 84.4586 22.2252 84.4586C19.2937 84.5097 16.4082 83.7257 13.9056 82.1983L4.41018 76.7517C3.25744 76.0804 2.30096 75.1185 1.63621 73.9619C0.971456 72.8054 0.621699 71.4948 0.621851 70.1608L0.621851 28.4716C0.618425 27.1356 0.966703 25.8222 1.63169 24.6634C2.29667 23.5046 3.25493 22.5413 4.41018 21.8702L40.5366 1.01324C41.7003 0.37657 43.0055 0.0428772 44.332 0.0428772C45.6585 0.0428772 46.9636 0.37657 48.1274 1.01324L84.2503 21.8702C85.4029 22.5401 86.3596 23.5007 87.025 24.656C87.6903 25.8112 88.041 27.1208 88.0421 28.454V70.1608C88.0402 71.4948 87.6891 72.805 87.0239 73.9612C86.3587 75.1174 85.4025 76.0795 84.2503 76.7517L48.1274 97.6086C46.9734 98.2744 45.6643 98.6242 44.332 98.6226Z" fill="#83CD29"/>
<path d="M37.4807 56.2081C37.4807 55.9279 37.592 55.6593 37.7901 55.4612C37.9882 55.2631 38.2568 55.1518 38.5369 55.1518H43.209C43.4586 55.1526 43.6999 55.2418 43.89 55.4036C44.0801 55.5654 44.2068 55.7893 44.2476 56.0355C44.9517 60.7921 47.0642 63.1897 56.616 63.1897C64.2243 63.1897 67.467 61.4681 67.467 57.4298C67.467 55.1025 66.548 53.3739 54.7218 52.2155C44.8356 51.2368 38.7235 49.0468 38.7235 41.1463C38.7235 33.8583 44.8672 29.5102 55.1654 29.5102C66.7382 29.5102 72.4664 33.5274 73.1917 42.1462C73.2028 42.2901 73.1842 42.4347 73.1373 42.5712C73.0903 42.7076 73.0158 42.833 72.9185 42.9395C72.8212 43.0461 72.703 43.1316 72.5714 43.1907C72.4398 43.2499 72.2974 43.2814 72.1531 43.2834H67.4494C67.2134 43.2801 66.9853 43.1978 66.8015 43.0498C66.6178 42.9017 66.4888 42.6964 66.4354 42.4666C65.3123 37.4636 62.5625 35.8652 55.169 35.8652C46.86 35.8652 45.8953 38.7592 45.8953 40.928C45.8953 43.5545 47.036 44.322 58.2532 45.8042C69.3541 47.2724 74.6282 49.3496 74.6282 57.1516C74.6282 65.024 68.0655 69.5306 56.6195 69.5306C40.7937 69.5517 37.4807 62.2954 37.4807 56.2081Z" fill="#83CD29"/>
</svg>
