<svg width="81" height="96" viewBox="0 0 81 96" fill="none" xmlns="http://www.w3.org/2000/svg">
<path d="M20.25 38.3751C22.9493 25.5426 29.7007 19.125 40.5 19.125C56.7 19.125 58.725 33.5625 66.825 35.9687C72.2257 37.5737 76.95 35.1675 81 28.7499C78.3007 41.5824 71.5493 48 60.75 48C44.55 48 42.525 33.5625 34.425 31.1563C29.0243 29.5513 24.3 31.9575 20.25 38.3751ZM0 67.2501C2.69926 54.4176 9.45074 48 20.25 48C36.45 48 38.475 62.4375 46.575 64.8437C51.9757 66.4487 56.7 64.0425 60.75 57.6249C58.0507 70.4574 51.2993 76.875 40.5 76.875C24.3 76.875 22.275 62.4375 14.175 60.0313C8.77426 58.4263 4.05 60.8325 0 67.2501Z" fill="#24D8C2"/>
</svg>
